<?xml version="1.0" standalone="no"?><!DOCTYPE svg PUBLIC "-//W3C//DTD SVG 1.1//EN" "http://www.w3.org/Graphics/SVG/1.1/DTD/svg11.dtd"><svg t="1692184285046" class="icon" viewBox="0 0 1024 1024" version="1.1" xmlns="http://www.w3.org/2000/svg" p-id="5248" data-spm-anchor-id="a313x.search_index.0.i2.cf1c3a819xMBrr" xmlns:xlink="http://www.w3.org/1999/xlink" width="1000" height="1000"><path d="M761 813.3c-18.3 3-37-2.8-50.1-15.7s-19.1-31.2-16-49.1c3.8-23.2 23-42 46.7-45.9 18.4-3.1 37.1 2.7 50.3 15.6 13.2 12.9 19.1 31.3 15.9 49.3-3.9 23.4-23.1 42.1-46.8 45.8m134.4-36.1l27-16.5c4.3-2.6 6.4-7.6 5.3-12.4l-13.2-56.8c-1.1-4.8-5.2-8.4-10.3-9l-31.7-3.4c-3.2-0.3-6-1.9-8-4.3l-5.3-6.5c-2-2.4-2.9-5.5-2.5-8.6l3.6-31c0.6-4.9-2.1-9.7-6.6-11.8l-53.6-25.3c-4.5-2.1-10-1.2-13.6 2.3L764 615.8c-2.2 2.2-5.2 3.4-8.4 3.4h-8.5c-3.2 0-6.2-1.2-8.4-3.4l-22.5-22.1c-3.6-3.5-9-4.4-13.6-2.3L649 616.7c-4.5 2.2-7.2 6.9-6.6 11.8l3.6 31c0.4 3.1-0.5 6.1-2.5 8.6l-5.3 6.5c-2 2.4-4.8 4-8 4.3l-31.7 3.5c-5 0.5-9.1 4.1-10.3 9L575 748.2c-1.1 4.8 1 9.8 5.3 12.4l27 16.6c2.7 1.6 4.6 4.3 5.3 7.3l1.9 8.1c0.7 3 0.2 6.2-1.5 8.8l-17 26.4c-2.7 4.2-2.4 9.6 0.8 13.5l37.1 45.5c3.2 3.9 8.5 5.4 13.2 3.7l30.1-10.4c3-1 6.3-0.9 9.1 0.5l7.7 3.6c2.9 1.4 5 3.7 6.1 6.7l10.5 29.5c1.7 4.7 6.2 7.8 11.2 7.8h59.5c5.1 0 9.6-3.2 11.2-7.8l10.5-29.5c1-2.9 3.2-5.3 6.1-6.7l7.7-3.6c2.8-1.4 6.1-1.5 9.1-0.5l30.1 10.4c4.8 1.6 10.1 0.2 13.2-3.7l37.1-45.5c3.2-3.9 3.4-9.3 0.8-13.5l-17-26.4c-1.7-2.6-2.3-5.8-1.6-8.8l1.9-8.1c0.4-3.1 2.3-5.7 5-7.3M507.9 554l45.7 45.7 51.9-51.9c-2.8-25.4 5.6-51.6 24.8-71 19.4-19.4 45.7-27.6 71-24.8l226.9-226.9L801.1 98.2 574.4 324.9c2.8 25.3-5.4 51.6-24.8 71s-45.7 27.6-71 24.8l-51.9 51.9 45.7 45.7-224.1 224.1-8.2-8.2-43.1 34.7-72.3 114.2 18.4 18.6 114.2-72.3 34.8-43.1-8.3-8.2L507.9 554z" p-id="5249" data-spm-anchor-id="a313x.search_index.0.i0.cf1c3a819xMBrr" class="" fill="#ffffff"></path><path d="M330.3 463c0.1 0.1 0.3 0.4 0.6 0.6l83.6 83.7 29.2-29.2-45.7-45.7 72.9-72.9 9.6 1c2.5 0.3 5 0.4 7.5 0.4 5 0 9.9-0.6 14.8-1.8L449 345.5c-1-1.2-2.2-2-3.4-3.2 16.7-59.5 1.5-125.9-45.3-172.7-46.5-46.4-112.3-61.6-171.4-45.7l100.2 100.4-26.3 98.2-98.3 26.3-100.2-100.3c-15.9 59.2-0.7 125 45.7 171.5 48.6 48.7 118.9 63 180.3 43zM680.4 576.9L626.5 523c-1.6 7.2-2 14.6-1.3 22.2l1.2 9.6-58.7 58.7-14.3 14.2-45.7-45.6-29.1 29.1 86.9 86.9c18.2-55.5 60.6-100.1 114.9-121.2z" p-id="5250" data-spm-anchor-id="a313x.search_index.0.i1.cf1c3a819xMBrr" class="" fill="#ffffff"></path></svg>