<?xml version="1.0" standalone="no"?><!DOCTYPE svg PUBLIC "-//W3C//DTD SVG 1.1//EN" "http://www.w3.org/Graphics/SVG/1.1/DTD/svg11.dtd"><svg t="1692187824217" class="icon" viewBox="0 0 1024 1024" version="1.1" xmlns="http://www.w3.org/2000/svg" p-id="9665" xmlns:xlink="http://www.w3.org/1999/xlink" width="1000" height="1000"><path d="M112.4 119.6v534h804V119.6h-804z m573.2 438.8c-93.2 93.2-244.4 93.2-338 0-93.2-93.2-93.2-244.4 0-338 93.2-93.2 244.4-93.2 337.6 0 93.6 93.2 93.6 244.4 0.4 338z" fill="#FFD552" p-id="9666"></path><path d="M944.8 840.4H79.2C36.4 840.4 1.6 805.6 1.6 762.8V77.6C1.6 34.8 36.4 0 79.2 0h866c42.4 0 77.2 34.4 77.2 77.2v686c0 42.4-34.8 77.2-77.6 77.2zM79.2 14.4C44.4 14.4 16 42.8 16 77.6v685.6c0 34.8 28.4 63.2 63.2 63.2h865.6c34.8 0 63.2-28.4 63.2-63.2V77.2c0-34.4-28-62.8-62.8-62.8H79.2z m868.4 670.4H81.2V88.4h866.4v596.4z m-852-14.4h837.6V102.8H95.6v567.6z" fill="#4A555F" p-id="9667"></path><path d="M79.2 31.2C53.6 31.2 32.8 52 32.8 77.6v685.6c0 25.6 20.8 46.4 46.4 46.4h865.6c25.6 0 46.4-20.8 46.4-46.4V71.6c0-22.4-18-40.4-40.4-40.4H79.2z m885.2 670.4h-900V71.6h900v630z" fill="#E0E0E0" p-id="9668"></path><path d="M676.8 961.2h-320l56.4-135.2h207.6l56 135.2z m-298.4-14.4h276.8l-44.4-106.4h-188.4l-44 106.4z" fill="#4A555F" p-id="9669"></path><path d="M403.6 930l30.4-72.8H600l30 72.8z" fill="#E0E0E0" p-id="9670"></path><path d="M807.2 1024H226.8v-77.2h580.4V1024z m-566-14.4h551.6v-48.4H241.2v48.4z" fill="#4A555F" p-id="9671"></path><path d="M258 978H776v14.8H258z" fill="#E0E0E0" p-id="9672"></path><path d="M35.2 1009.6h962.8v14.4H35.2z" fill="#4A555F" p-id="9673"></path><path d="M517.6 756.4m-38 0a38 38 0 1 0 76 0 38 38 0 1 0-76 0Z" fill="#FFFFFF" p-id="9674"></path><path d="M517.6 801.6c-24.8 0-45.2-20.4-45.2-45.2 0-24.8 20.4-45.2 45.2-45.2 24.8 0 45.2 20.4 45.2 45.2 0 24.8-20.4 45.2-45.2 45.2z m0-76c-16.8 0-30.8 13.6-30.8 30.8s13.6 30.8 30.8 30.8 30.8-13.6 30.8-30.8-14-30.8-30.8-30.8z" fill="#4A555F" p-id="9675"></path><path d="M584 427.2l-49.6-49.6L572 340l4.8 6.8c14.4 20 18 45.6 10.4 69.2l-3.2 11.2z m-29.2-49.2l21.6 21.6c1.6-12.4-0.8-25.6-6.8-36.8l-14.8 15.2zM491.6 492c-16.4 0-31.6-4.8-44.8-14.4l-6.8-4.8 68.8-68.8 51.6 51.6-14 14c-14.8 14.4-34.4 22.4-54.8 22.4z m-29.2-21.6c8.8 4.8 18.8 7.2 29.2 7.2 16.8 0 32.4-6.4 44.4-18.4l4-4-31.2-31.2-46.4 46.4zM528 371.6l-49.6-49.6 11.2-3.6c7.6-2.4 16-4 24-4 16.4 0 32 5.2 44.8 14.4l6.8 4.8-37.2 38z m-21.6-42l21.6 21.6 14.8-14.8c-8.8-4.8-18.8-7.2-29.2-7.2-2 0-4.8 0-7.2 0.4zM433.6 466.4l-4.8-6.8c-22-30.8-18.4-72.8 8.4-99.6l14-14 51.6 51.6-69.2 68.8z m17.2-100.4l-4 4c-20 20-24 49.6-11.2 73.6l46.4-46.4-31.2-31.2zM596.4 348.4c-7.2 0-13.6-2.8-18.8-7.6l-12.4-12.4a26.56 26.56 0 0 1 0-37.6c4.8-4.8 11.6-7.6 18.8-7.6 7.2 0 13.6 2.8 18.8 7.6l12.4 12.4c4.8 4.8 7.6 11.6 7.6 18.8 0 7.2-2.8 13.6-7.6 18.8-5.2 5.2-11.6 7.6-18.8 7.6zM584 297.6c-3.2 0-6.4 1.2-8.4 3.6-4.8 4.8-4.8 12.4 0 17.2l12.4 12.4c4.4 4.4 12.4 4.4 17.2 0 2.4-2.4 3.6-5.2 3.6-8.4s-1.2-6.4-3.6-8.4l-12.4-12.4c-2.4-2.8-5.6-4-8.8-4z" fill="#4A555F" p-id="9676"></path><path d="M598.8 297.6l-10-10c9.2-9.2 9.2-24.4 0-33.6l-7.2-7.2 10-10 7.2 7.2c15.2 14.4 15.2 38.4 0 53.6zM659.6 324.4l-7.2-7.2c-9.2-9.2-24.4-9.2-33.6 0l-10-10c14.8-14.8 39.2-14.8 54 0l7.2 7.2-10.4 10z" fill="#4A555F" p-id="9677"></path><path d="M508.8 327.2l-23.2-23.2c-12-12-17.6-29.2-15.2-46.4l2.8-17.6 14.4 2.4-2.8 17.6c-2 12.4 2 24.8 11.2 34l23.2 23.2-10.4 10z" fill="#4A555F" p-id="9678"></path><path d="M640.8 436.8c-14 0-28-5.6-38-15.6l-23.2-23.2 10-10 23.2 23.2c8.8 8.8 21.6 12.8 34 11.2l17.6-2.8 2.4 14.4-17.6 2.8c-2.8-0.4-5.6 0-8.4 0z" fill="#4A555F" p-id="9679"></path><path d="M348 220.4c-93.2 93.2-93.2 244.4 0 337.6 93.2 93.2 244.4 93.2 338 0s93.2-244.4 0-337.6c-93.6-93.2-244.8-93.2-338 0z m323.2 284l-269.2-269.2c75.2-56.4 182.4-50 251.2 18.4 68 68 74 175.6 18 250.8zM365.6 270.4l270 270c-75.6 59.6-185.2 54.4-254.8-15.2-69.6-69.6-74.8-179.2-15.2-254.8z" fill="#F68F6F" p-id="9680"></path><path d="M348 220.4c-93.2 93.2-93.2 244.4 0 337.6 93.2 93.2 244.4 93.2 338 0s93.2-244.4 0-337.6c-93.6-93.2-244.8-93.2-338 0z m323.2 284l-269.2-269.2c75.2-56.4 182.4-50 251.2 18.4 68 68 74 175.6 18 250.8zM365.6 270.4l270 270c-75.6 59.6-185.2 54.4-254.8-15.2-69.6-69.6-74.8-179.2-15.2-254.8z" fill="#F68F6F" p-id="9681"></path><path d="M535.6 553.2l-12.8-6.4 10.4-21.2c4.4-8.8 2.8-19.6-4.4-26.8l-14.8-14.8 10-10 14.8 14.8c11.6 11.6 14.4 28.8 7.2 43.6l-10.4 20.8z" fill="#4A555F" p-id="9682"></path><path d="M423.2 393.2l-14.8-14.8a23.2 23.2 0 0 0-26.8-4.4l-21.2 10.4-6.4-12.8 21.2-10.4c14.4-7.2 32-4.4 43.6 7.2l14.8 14.8-10.4 10z" fill="#4A555F" p-id="9683"></path></svg>