<?xml version="1.0" standalone="no"?><!DOCTYPE svg PUBLIC "-//W3C//DTD SVG 1.1//EN" "http://www.w3.org/Graphics/SVG/1.1/DTD/svg11.dtd"><svg t="1692105375039" class="icon" viewBox="0 0 1024 1024" version="1.1" xmlns="http://www.w3.org/2000/svg" p-id="4248" id="mx_n_1692105375041" xmlns:xlink="http://www.w3.org/1999/xlink" width="1000" height="1000"><path d="M672 832H224c-52.928 0-96-43.072-96-96V160c0-52.928 43.072-96 96-96h448c52.928 0 96 43.072 96 96v576c0 52.928-43.072 96-96 96zM224 128c-17.632 0-32 14.368-32 32v576c0 17.664 14.368 32 32 32h448c17.664 0 32-14.336 32-32V160c0-17.632-14.336-32-32-32H224z m576 832H320c-17.664 0-32-14.304-32-32s14.336-32 32-32h480c17.664 0 32-14.336 32-32V256c0-17.664 14.304-32 32-32s32 14.336 32 32v608c0 52.928-43.072 96-96 96zM544 320H288c-17.664 0-32-14.336-32-32s14.336-32 32-32h256c17.696 0 32 14.336 32 32s-14.304 32-32 32z m64 160H288.032c-17.664 0-32-14.336-32-32s14.336-32 32-32H608c17.696 0 32 14.336 32 32s-14.304 32-32 32z m0 160H288c-17.664 0-32-14.304-32-32s14.336-32 32-32h320c17.696 0 32 14.304 32 32s-14.304 32-32 32z" fill="#A0522D" p-id="4249"></path></svg>