<?xml version="1.0" standalone="no"?><!DOCTYPE svg PUBLIC "-//W3C//DTD SVG 1.1//EN" "http://www.w3.org/Graphics/SVG/1.1/DTD/svg11.dtd"><svg t="1692188029207" class="icon" viewBox="0 0 1024 1024" version="1.1" xmlns="http://www.w3.org/2000/svg" p-id="10888" xmlns:xlink="http://www.w3.org/1999/xlink" width="1000" height="1000"><path d="M747.776 891.0848H276.8384c-68.2496 0-123.5456-55.296-123.5456-123.5456V319.488h718.0288v448.0512c0 68.2496-55.296 123.5456-123.5456 123.5456z" fill="#FF5D50" p-id="10889"></path><path d="M654.7456 566.8864H369.92c-28.2624 0-51.2-22.9376-51.2-51.2s22.9376-51.2 51.2-51.2h284.8256c28.2624 0 51.2 22.9376 51.2 51.2s-22.9376 51.2-51.2 51.2zM882.8416 353.5872H141.824c-35.1744 0-63.744-28.5184-63.744-63.744V194.6624c0-35.1744 28.5184-63.744 63.744-63.744h740.9664c35.1744 0 63.744 28.5184 63.744 63.744v95.1808c0 35.2256-28.5184 63.744-63.6928 63.744z" fill="#FFDF99" p-id="10890"></path></svg>