<?xml version="1.0" standalone="no"?><!DOCTYPE svg PUBLIC "-//W3C//DTD SVG 1.1//EN" "http://www.w3.org/Graphics/SVG/1.1/DTD/svg11.dtd"><svg t="1692098160433" class="icon" viewBox="0 0 1024 1024" version="1.1" xmlns="http://www.w3.org/2000/svg" p-id="10680" xmlns:xlink="http://www.w3.org/1999/xlink" width="1000" height="1000"><path d="M554.666667 384h234.666666L554.666667 149.333333V384M256 85.333333h341.333333l256 256v512a85.333333 85.333333 0 0 1-85.333333 85.333334H256a85.333333 85.333333 0 0 1-85.333333-85.333334V170.666667c0-47.36 37.973333-85.333333 85.333333-85.333334m384 682.666667v-85.333333H256v85.333333h384m128-170.666667v-85.333333H256v85.333333h512z" fill="#bfbfbf" p-id="10681" data-spm-anchor-id="a313x.search_index.0.i10.57693a81pimaGk" class="selected"></path><path d="M722.346667 554.666667c-33.706667 0-61.013333 27.306667-61.013334 61.013333v35.84h91.52c8.32 0 15.146667 12.16 15.146667 20.48h-152.32c-33.706667 0-61.013333 27.306667-61.013333 61.013333v80.64c0 33.706667 27.306667 61.013333 61.013333 61.013334h25.173333v-57.173334c0-33.706667 27.093333-61.013333 60.8-61.013333h112c33.706667 0 61.013333-27.093333 61.013334-60.8V615.68c0-33.706667-27.306667-61.013333-61.013334-61.013333z m-15.36 34.346666c8.533333 0 15.36 2.56 15.36 15.146667s-6.826667 19.029333-15.36 19.029333c-8.32 0-15.146667-6.4-15.146667-19.029333s6.826667-15.146667 15.146667-15.146667z" fill="#3C78AA" p-id="10682"></path><path d="M895.146667 661.333333v57.173334c0 33.706667-27.093333 61.013333-60.8 61.013333H722.346667c-33.706667 0-61.013333 27.050667-61.013334 60.757333v80A61.013333 61.013333 0 0 0 722.346667 981.333333h91.306666a61.013333 61.013333 0 0 0 61.013334-61.013333v-35.84h-91.562667c-8.32 0-15.104-12.117333-15.104-20.48h152.32A61.013333 61.013333 0 0 0 981.333333 802.986667v-80.64a61.013333 61.013333 0 0 0-61.013333-61.013334z m-205.653334 96.298667l-0.085333 0.085333c0.256-0.085333 0.554667-0.042667 0.810667-0.085333z m139.52 155.178667c8.32 0 15.146667 6.4 15.146667 19.029333a15.146667 15.146667 0 0 1-15.146667 15.104c-8.533333 0-15.36-2.56-15.36-15.104s6.826667-19.029333 15.36-19.029333z" fill="#FDD835" p-id="10683"></path></svg>