<?xml version="1.0" standalone="no"?><!DOCTYPE svg PUBLIC "-//W3C//DTD SVG 1.1//EN" "http://www.w3.org/Graphics/SVG/1.1/DTD/svg11.dtd"><svg t="1692268182762" class="icon" viewBox="0 0 1024 1024" version="1.1" xmlns="http://www.w3.org/2000/svg" p-id="5112" xmlns:xlink="http://www.w3.org/1999/xlink" width="1000" height="1000"><path d="M982.724433 313.12044c-25.732058-60.836577-62.564941-115.466802-109.47432-162.372088-46.910403-46.909379-101.542674-83.740216-162.381297-109.472274-63.001893-26.643823-129.910768-40.154535-198.869327-40.154535-68.960605 0-135.870504 13.510712-198.872397 40.154535-60.838623 25.732058-115.472941 62.562894-162.381297 109.472274-46.910403 46.905286-83.742263 101.535511-109.472274 162.372088-26.64587 62.997799-40.156582 129.901559-40.156582 198.857047 0 68.958558 13.510712 135.867434 40.154535 198.871373 25.732058 60.84067 62.564941 115.474988 109.473297 162.385391 46.908356 46.914496 101.541651 83.748403 162.381297 109.481484 63.001893 26.647917 129.912815 40.160675 198.87342 40.160675 68.958558 0 135.866411-13.512758 198.87035-40.160675 60.838623-25.733081 115.470895-62.568011 162.380274-109.481484 46.911426-46.910403 83.742263-101.544721 109.47432-162.385391 26.646893-63.002916 40.157605-129.912815 40.157605-198.871373C1022.883061 443.025069 1009.371326 376.119263 982.724433 313.12044zM933.623132 690.080861c-23.044856 54.485939-56.040341 103.425557-98.069573 145.45786-42.031279 42.032302-90.967828 75.030857-145.453766 98.077759-56.394405 23.854291-116.316146 35.948747-178.100304 35.948747-61.787228 0-121.709993-12.094456-178.104397-35.948747-54.483892-23.045879-103.420441-56.044434-145.452743-98.077759-42.029232-42.032302-75.023694-90.971921-98.067526-145.45786-23.853267-56.394405-35.9467-116.317169-35.9467-178.103374 0-61.781088 12.093433-121.698736 35.944654-178.089048 23.043832-54.480822 56.040341-103.415324 98.069573-145.44251 42.030255-42.028209 90.966805-75.023694 145.450696-98.06548 56.395428-23.853267 116.319216-35.9467 178.106444-35.9467 61.785182 0 121.707946 12.093433 178.102351 35.9467 54.483892 23.041786 103.420441 56.037271 145.45172 98.06548 42.029232 42.027186 75.025741 90.961688 98.069573 145.44251 23.854291 56.390311 35.947723 116.307959 35.947723 178.089048C969.570855 573.763692 957.476399 633.685433 933.623132 690.080861z" fill="#e0620d" p-id="5113" data-spm-anchor-id="a313x.search_index.0.i2.190b3a810Q9MFc" class="selected"></path><path d="M539.306414 257.747295c-0.091074-0.088004-0.180102-0.177032-0.270153-0.265036-12.417821-12.069897-32.453133-11.95017-44.672432 0.265036l-195.189518 195.219193c-10.410094 10.410094-10.408047 27.288506 0.002047 37.696554 10.412141 10.408047 27.288506 10.408047 37.6986-0.002047l179.959651-179.987281 183.567829 183.593412c5.204535 5.205559 12.026918 7.807826 18.850323 7.807826 6.821359 0 13.642718-2.601244 18.847254-7.80578 10.411117-10.408047 10.412141-27.285436 0.002047-37.697577L539.306414 257.747295z" fill="#e0620d" p-id="5114" data-spm-anchor-id="a313x.search_index.0.i1.190b3a810Q9MFc" class="selected"></path><path d="M514.166851 328.034105c-14.721283 0-26.657126 11.933797-26.657126 26.65508l0 365.915877c0 14.722306 11.935843 26.656103 26.657126 26.656103 14.722306 0 26.657126-11.933797 26.657126-26.656103l0-365.915877C540.822954 339.967902 528.888134 328.034105 514.166851 328.034105z" fill="#e0620d" p-id="5115" data-spm-anchor-id="a313x.search_index.0.i0.190b3a810Q9MFc" class="selected"></path></svg>