<?xml version="1.0" standalone="no"?><!DOCTYPE svg PUBLIC "-//W3C//DTD SVG 1.1//EN" "http://www.w3.org/Graphics/SVG/1.1/DTD/svg11.dtd"><svg t="1692082121263" class="icon" viewBox="0 0 1024 1024" version="1.1" xmlns="http://www.w3.org/2000/svg" p-id="4924" xmlns:xlink="http://www.w3.org/1999/xlink" width="1000" height="1000"><path d="M0 0h1024v1024H0V0z" fill="#202425" opacity=".01" p-id="4925"></path><path d="M512 443.733333a34.133333 34.133333 0 0 1 34.133333 34.133334v443.733333a34.133333 34.133333 0 1 1-68.266666 0V477.866667a34.133333 34.133333 0 0 1 34.133333-34.133334z" fill="#FFAA44" p-id="4926"></path><path d="M341.333333 514.628267V136.533333H273.066667a34.133333 34.133333 0 1 1 0-68.266666h477.866666a34.133333 34.133333 0 1 1 0 68.266666h-68.266666v378.094934l170.359466 104.823466c29.320533 18.056533 16.520533 63.214933-17.885866 63.214934H188.859733c-34.4064 0-47.2064-45.1584-17.885866-63.214934L341.333333 514.628267z" fill="#11AA66" p-id="4927"></path></svg>